<svg width="1024" height="1024" viewBox="0 0 1024 1024" fill="none" xmlns="http://www.w3.org/2000/svg">
  <rect width="1024" height="1024" fill="white"/>
  <circle cx="512" cy="512" r="400" fill="#6366F1"/>
  <path d="M512 312C406.4 312 320 398.4 320 504C320 609.6 406.4 696 512 696C617.6 696 704 609.6 704 504C704 398.4 617.6 312 512 312ZM512 632C441.6 632 384 574.4 384 504C384 433.6 441.6 376 512 376C582.4 376 640 433.6 640 504C640 574.4 582.4 632 512 632Z" fill="white"/>
  <path d="M736 712H288C275.2 712 264.8 721.6 264 734.4C259.2 782.4 300 824 348.8 824H675.2C724 824 764.8 782.4 760 734.4C759.2 721.6 748.8 712 736 712Z" fill="white"/>
</svg>