<svg width="1024" height="1024" viewBox="0 0 1024 1024" fill="none" xmlns="http://www.w3.org/2000/svg">
  <rect width="1024" height="1024" fill="#6366F1"/>
  <path d="M512 256C406.4 256 320 342.4 320 448C320 553.6 406.4 640 512 640C617.6 640 704 553.6 704 448C704 342.4 617.6 256 512 256ZM512 576C441.6 576 384 518.4 384 448C384 377.6 441.6 320 512 320C582.4 320 640 377.6 640 448C640 518.4 582.4 576 512 576Z" fill="white"/>
  <path d="M736 768H288C275.2 768 264.8 777.6 264 790.4C259.2 838.4 300 880 348.8 880H675.2C724 880 764.8 838.4 760 790.4C759.2 777.6 748.8 768 736 768Z" fill="white"/>
  <path d="M512 192C524.8 192 536 180.8 536 168V152C536 139.2 524.8 128 512 128C499.2 128 488 139.2 488 152V168C488 180.8 499.2 192 512 192Z" fill="white"/>
  <path d="M512 704C499.2 704 488 715.2 488 728V744C488 756.8 499.2 768 512 768C524.8 768 536 756.8 536 744V728C536 715.2 524.8 704 512 704Z" fill="white"/>
  <path d="M736 488H752C764.8 488 776 476.8 776 464C776 451.2 764.8 440 752 440H736C723.2 440 712 451.2 712 464C712 476.8 723.2 488 736 488Z" fill="white"/>
  <path d="M272 464C272 451.2 260.8 440 248 440H232C219.2 440 208 451.2 208 464C208 476.8 219.2 488 232 488H248C260.8 488 272 476.8 272 464Z" fill="white"/>
  <path d="M651.2 324.8L662.4 313.6C671.2 304.8 671.2 290.4 662.4 281.6C653.6 272.8 639.2 272.8 630.4 281.6L619.2 292.8C610.4 301.6 610.4 316 619.2 324.8C628 333.6 642.4 333.6 651.2 324.8Z" fill="white"/>
  <path d="M404.8 603.2L393.6 614.4C384.8 623.2 384.8 637.6 393.6 646.4C402.4 655.2 416.8 655.2 425.6 646.4L436.8 635.2C445.6 626.4 445.6 612 436.8 603.2C428 594.4 413.6 594.4 404.8 603.2Z" fill="white"/>
  <path d="M651.2 603.2C642.4 594.4 628 594.4 619.2 603.2C610.4 612 610.4 626.4 619.2 635.2L630.4 646.4C639.2 655.2 653.6 655.2 662.4 646.4C671.2 637.6 671.2 623.2 662.4 614.4L651.2 603.2Z" fill="white"/>
  <path d="M404.8 324.8C413.6 333.6 428 333.6 436.8 324.8C445.6 316 445.6 301.6 436.8 292.8L425.6 281.6C416.8 272.8 402.4 272.8 393.6 281.6C384.8 290.4 384.8 304.8 393.6 313.6L404.8 324.8Z" fill="white"/>
</svg>