<svg width="1242" height="2436" viewBox="0 0 1242 2436" fill="none" xmlns="http://www.w3.org/2000/svg">
  <rect width="1242" height="2436" fill="white"/>
  <rect x="271" y="968" width="700" height="500" rx="50" fill="#6366F1"/>
  <path d="M621 1118C515.4 1118 429 1204.4 429 1310C429 1415.6 515.4 1502 621 1502C726.6 1502 813 1415.6 813 1310C813 1204.4 726.6 1118 621 1118ZM621 1438C550.6 1438 493 1380.4 493 1310C493 1239.6 550.6 1182 621 1182C691.4 1182 749 1239.6 749 1310C749 1380.4 691.4 1438 621 1438Z" fill="white"/>
  <path d="M845 1630H397C384.2 1630 373.8 1639.6 373 1652.4C368.2 1700.4 409 1742 457.8 1742H784.2C833 1742 873.8 1700.4 869 1652.4C868.2 1639.6 857.8 1630 845 1630Z" fill="white"/>
  <text x="621" y="1800" font-family="Arial" font-size="60" text-anchor="middle" fill="#6366F1">Campus Events</text>
</svg>